# xmcd
#
# Track frame offsets:
#	150
#	12013
#	25453
#	35733
#	45803
#	60048
#	72808
#	85225
#	101058
#	121445
#	137200
#	148873
#	161545
#	177530
#	191765
#	212728
#	224990
#	239485
#	255793
#
# Disc length: 3607 seconds
#
# Revision: 1
# Processed by: cddbd v1.5.1PL0 Copyright (c) Steve Scherf et al.
# Submitted via: audiograbber 1.83.01
#
DISCID=150e1513
DTITLE=Various Artist - OLON CD Country
DYEAR=1900
DGENRE=
TTITLE0=Secret Combination - How Far S Hello
TTITLE1=Rivers and McCoy - I Don't Believe In Miracles
TTITLE2=Hillbilly Stringpickers - Honky Tonk Boogie
TTITLE3=Annet Roons - Tears Like A River
TTITLE4=Borderline - Say you Love Me
TTITLE5=Mark Lavender - She's Smiling To Me
TTITLE6=Colt 45 - Now I've Seen What Loneliness Can Do
TTITLE7=JJ Johns - Drinkin'One Day At A Time
TTITLE8=Cash On Delivery - Be That Way
TTITLE9=Mosam Skiffle Train - Wondering
TTITLE10=Carmen Steneker - Country Fever
TTITLE11=Chitlin' Fooks - Not Enough Tears 
TTITLE12=Rene Innemee - Tom Dooley
TTITLE13=Captain Gumbo - La Noire
TTITLE14=Major Dundee - The Song
TTITLE15=Lex Koopman - Alzheimer Home
TTITLE16=Coincidence - Can You Help Me Out Of This Dream
TTITLE17=B5 - Dimmed Lights
TTITLE18=Very Girls and The Watchman - My Own Way
EXTD=
EXTT0=
EXTT1=
EXTT2=
EXTT3=
EXTT4=
EXTT5=
EXTT6=
EXTT7=
EXTT8=
EXTT9=
EXTT10=
EXTT11=
EXTT12=
EXTT13=
EXTT14=
EXTT15=
EXTT16=
EXTT17=
EXTT18=
PLAYORDER=
